<?xml version="1.0" standalone="no"?>
<!DOCTYPE svg PUBLIC "-//W3C//DTD SVG 20010904//EN"
 "http://www.w3.org/TR/2001/REC-SVG-20010904/DTD/svg10.dtd">
<svg version="1.0" xmlns="http://www.w3.org/2000/svg"
 width="48.000000pt" height="48.000000pt" viewBox="0 0 48.000000 48.000000"
 preserveAspectRatio="xMidYMid meet">

<g transform="translate(0.000000,48.000000) scale(0.100000,-0.100000)"
fill="#000000" stroke="none">
<path d="M213 413 c-19 -27 -21 -27 -39 -11 -23 20 -47 10 -43 -18 5 -28 -8
-43 -32 -37 -30 8 -42 -17 -21 -40 16 -18 15 -20 -13 -43 l-30 -24 30 -24 c28
-23 29 -25 13 -43 -21 -23 -9 -48 21 -40 24 6 37 -9 32 -37 -4 -28 20 -38 42
-18 18 16 20 15 43 -13 l24 -30 24 30 c23 28 25 29 43 13 22 -20 46 -10 42 18
-5 28 8 43 32 37 30 -8 42 17 21 40 -16 18 -15 20 13 43 l30 24 -30 24 c-28
23 -29 25 -13 43 21 23 9 48 -21 40 -24 -6 -37 9 -32 37 4 28 -20 38 -42 18
-18 -16 -20 -15 -41 11 -12 15 -24 27 -27 27 -3 0 -14 -12 -26 -27z m7 -73 c0
-22 -35 -44 -57 -36 -13 5 -13 9 -2 22 11 13 37 28 57 33 1 1 2 -8 2 -19z m96
-11 c15 -17 15 -19 1 -25 -22 -8 -57 13 -57 35 0 24 31 18 56 -10z m-46 -64
c26 -32 -13 -81 -47 -59 -23 14 -28 41 -13 59 16 19 44 19 60 0z m-115 -25 c0
-16 -6 -26 -17 -28 -14 -3 -18 3 -18 28 0 25 4 31 18 28 11 -2 17 -12 17 -28z
m205 0 c0 -32 -26 -43 -36 -15 -9 21 3 45 21 45 10 0 15 -10 15 -30z m-159
-70 c25 -14 26 -52 2 -43 -27 9 -53 34 -47 44 7 12 21 11 45 -1z m123 1 c6
-10 -20 -35 -46 -44 -13 -5 -18 -1 -18 13 0 28 51 53 64 31z"/>
</g>
</svg>
